<svg data-v-0dd9719b="" version="1.0" xmlns="http://www.w3.org/2000/svg" xmlns:xlink="http://www.w3.org/1999/xlink" width="100%" height="100%" viewBox="0 0 340.000000 250.000000" preserveAspectRatio="xMidYMid meet" color-interpolation-filters="sRGB" style="margin: auto;"> <rect data-v-0dd9719b="" x="0" y="0" width="100%" height="100%" fill="#fff" fill-opacity="1" class="background"></rect> <rect data-v-0dd9719b="" x="0" y="0" width="100%" height="100%" fill="url(#watermark)" fill-opacity="1" class="watermarklayer"></rect> <g data-v-0dd9719b="" fill="#209dd0" class="icon-text-wrapper icon-svg-group iconsvg" transform="translate(47.677223205566406,96.7761287689209)"><g class="iconsvg-imagesvg" transform="translate(0,0)"><g><rect fill="#209dd0" fill-opacity="0" stroke-width="2" x="0" y="0" width="60" height="56.44774350145353" class="image-rect"></rect> <svg x="0" y="0" width="60" height="56.44774350145353" filtersec="colorsb2024867260" class="image-svg-svg primary" style="overflow: visible;"><svg xmlns="http://www.w3.org/2000/svg" viewBox="-0.016940712928771973 0.008251190185546875 218.91522216796875 205.95375061035156"><g><g><path d="M89.1 129.46c-5.47.62-11.16-.56-17-5.33-9.41-7.72-25.55-6.69-36.18.57-10.2 7-16 20.76-13.57 32.26 3 14 12.47 23.6 25.6 26.22 10.73 2.14 20.16-.41 28.42-7.33a10.34 10.34 0 0 1 7.25-2.63c5.16.09 10.33-.08 15.5.06 4.39.12 5.13 1.35 2.92 5.2-8.58 14.92-21.45 24.28-38.39 26.78-31.32 4.63-57.55-14-62.92-45.33-5.1-29.93 16.47-59.84 47.8-62.73a64.09 64.09 0 0 1 17.87.8c3.32.63 5.38-.57 7-3.37C78.17 86.28 83 77.89 88 69.62c1.88-3.12 1.06-5.93.29-9.07-2.08-8.58-.48-16.43 6.54-22.18s15.11-7.05 23.43-3.07c8.49 4.07 12.58 11.23 12.31 20.6a21.16 21.16 0 0 1-17.65 20.2 8.23 8.23 0 0 0-6.48 4.63C101.91 88.89 97.32 97 92.49 105c-1.91 3.16-1.59 5.32 1 7.86 3.57 3.52 6.23 7.8 8.84 12.07 1.69 2.77 1 4.46-2.39 4.52-3.19.05-6.35.01-10.84.01z" fill="#f4a618"></path><path d="M54.55 54.6c.06-36.88 35.92-63.16 71-52 37.54 11.92 50.2 60.29 23.19 89.06-2.8 3-3.06 5.4-1 8.79q7.91 13.31 15.44 26.85c1.35 2.41 3.46 2.77 5.74 3.37 14.67 3.84 21.15 18.91 13.75 31.83-5 8.75-16.68 12.66-26.1 8.75-10-4.13-15.54-15.14-12.2-25.48 1.36-4.23.49-7.28-1.58-10.74-4.62-7.71-9.12-15.5-13.4-23.41-1.92-3.53-3.81-5.4-8.2-3.77s-9.13 1.76-13.83 1.5c-3-.17-4-1.55-2.47-4.21 3.24-5.62 6.58-11.19 9.92-16.76 1-1.72 2.9-2.12 4.64-2.69A32.43 32.43 0 0 0 139.07 42c-7.34-17.22-28.93-24.83-45.4-16-13.09 7-19.26 19.16-17.16 34 .61 4.3.1 8.17-2.49 11.86-2.48 3.54-4.54 7.37-6.68 11.13-1.69 3-3 3.77-5.08.12-4.96-8.85-8.07-18.19-7.71-28.51z" fill="#7cba29"></path><path d="M165.48 205.45c-24.33 0-44.27-14-52-36.65-1.69-4.93-3.9-6.94-9.21-6.65-8 .44-16 .3-24 0a14.43 14.43 0 0 0-11.55 4.42c-6.32 6.2-14.15 7.31-22.23 4s-12.27-9.85-12.53-18.34c-.24-8 3-14.62 10.18-18.82a20.29 20.29 0 0 1 26.26 4.39 9 9 0 0 0 7.74 3.47c9.16-.12 18.34-.22 27.5 0 4.27.12 6.27-1.37 7.28-5.58a40.75 40.75 0 0 1 5.63-12.69c1.34-2 2.58-2.48 4 0 3.07 5.35 6.22 10.64 9.3 16 1.19 2.06.49 4.19.16 6.34-2 12.91 1.79 23.93 12 32.08s21.89 9.33 33.91 4.39c13-5.34 20.35-18 19.73-33-.52-12.62-9.64-24.37-22.31-28.51a10.08 10.08 0 0 1-6.35-5.17c-2.28-4.44-4.71-8.82-7.31-13.09-2.13-3.49-1.23-4.72 2.7-4.74 14.94-.08 27.85 5.07 38.3 15.59 24.3 24.48 20.86 63.48-7.41 83.19-9.06 6.28-19.27 10.03-29.79 9.37z" fill="#209dd0"></path></g></g></svg></svg> <!----></g></g> <g transform="translate(67,20.79387092590332)"><g data-gra="path-name" fill-rule="" class="tp-name iconsvg-namesvg"><g transform="scale(1)"><g><path d="M2.44-4.6L11.53-4.6 12.03-7.62 1.94-7.62 3.2-16.44 18.07-16.44 17.57-12.16 12.53-12.16 12.79-13.92 7.98-13.92 7.22-10.14 17.31-10.14 16.31-3.34Q16.31-2.97 16.14-2.64 15.97-2.31 15.68-2.07 15.39-1.84 15.04-1.71 14.68-1.58 14.29-1.58L14.29-1.58 1.18-1.58 1.68-5.62 2.44-4.6ZM21.43-16.44L28-16.44 30.78-7.12 36.06-16.44 41.36-16.44 39.34-1.58 34.8-1.58 36.06-9.4 32.04-2.57 28-2.57 25.97-9.14 24.98-1.58 20.43-1.58 22.45-15.44 21.43-16.44ZM48.72-16.44L59.06-16.44 61.06-1.58 56.54-1.58 56.02-5.62 49.71-5.62 47.95-1.58 43.67-1.58 49.48-15.7 48.72-16.44ZM55.02-13.92L53.26-13.92 50.74-8.14 55.78-8.14 55.02-13.92ZM64.37-16.44L80.76-16.44 79.76-8.88Q79.76-8.51 79.59-8.18 79.42-7.85 79.13-7.62 78.84-7.38 78.48-7.25 78.13-7.12 77.74-7.12L77.74-7.12 74.45-7.12 79.76-1.58 74.22-1.58 69.17-7.12 68.41-1.58 63.37-1.58 65.13-15.44 64.37-16.44ZM75.48-13.92L69.94-13.92 69.41-9.64 74.98-9.64 75.48-13.92ZM91.94-1.58L86.9-1.58 88.66-13.92 83.12-13.92 83.38-16.44 99.51-16.44 99.01-13.92 93.7-13.92 91.94-1.58ZM106.86-16.44L117.21-16.44 119.2-1.58 114.69-1.58 114.16-5.62 107.86-5.62 106.1-1.58 101.82-1.58 107.62-15.7 106.86-16.44ZM113.16-13.92L111.4-13.92 108.88-8.14 113.92-8.14 113.16-13.92ZM139.22-16.44L138.72-12.16 133.67-12.16 133.91-13.92 127.87-13.92 126.61-4.1 132.65-4.1 132.91-7.12 131.39-9.64 138.19-9.64 137.19-1.58 123.06-1.58Q122.7-1.58 122.38-1.71 122.07-1.84 121.84-2.07 121.62-2.31 121.54-2.64 121.46-2.97 121.57-3.34L121.57-3.34 123.33-16.44 139.22-16.44ZM142.58-16.44L158.96-16.44 157.97-8.88Q157.97-8.51 157.8-8.18 157.62-7.85 157.34-7.62 157.05-7.38 156.69-7.25 156.34-7.12 155.94-7.12L155.94-7.12 152.66-7.12 157.97-1.58 152.42-1.58 147.38-7.12 146.62-1.58 141.58-1.58 143.34-15.44 142.58-16.44ZM153.69-13.92L148.14-13.92 147.62-9.64 153.19-9.64 153.69-13.92ZM163.14-16.44L177.27-16.44Q177.64-16.44 177.95-16.31 178.27-16.18 178.49-15.94 178.71-15.7 178.79-15.39 178.87-15.07 178.77-14.68L178.77-14.68 177.01-1.58 162.88-1.58Q162.51-1.58 162.19-1.71 161.88-1.84 161.66-2.07 161.43-2.31 161.35-2.64 161.28-2.97 161.38-3.34L161.38-3.34 163.14-16.44ZM173.72-13.92L167.68-13.92 166.42-4.1 172.23-4.1 173.72-13.92Z" transform="translate(-1.1800000667572021, 16.440000534057617)"></path></g> <!----> <!----> <!----> <!----> <!----> <!----> <!----></g></g> <!----></g></g><defs v-gra="od"></defs></svg>